<svg width="16" height="16" viewBox="0 0 16 16" fill="none" xmlns="http://www.w3.org/2000/svg">
<path fill-rule="evenodd" clip-rule="evenodd" d="M10 3.5C10 3.36739 9.94732 3.24021 9.85355 3.14645C9.75979 3.05268 9.63261 3 9.5 3H1.5C1.36739 3 1.24021 3.05268 1.14645 3.14645C1.05268 3.24021 1 3.36739 1 3.5V12.5C1 12.6326 1.05268 12.7598 1.14645 12.8536C1.24021 12.9473 1.36739 13 1.5 13H9.5C9.63261 13 9.75979 12.9473 9.85355 12.8536C9.94732 12.7598 10 12.6326 10 12.5V10.5C10 10.3674 10.0527 10.2402 10.1464 10.1464C10.2402 10.0527 10.3674 10 10.5 10C10.6326 10 10.7598 10.0527 10.8536 10.1464C10.9473 10.2402 11 10.3674 11 10.5V12.5C11 12.8978 10.842 13.2794 10.5607 13.5607C10.2794 13.842 9.89782 14 9.5 14H1.5C1.10218 14 0.720644 13.842 0.43934 13.5607C0.158035 13.2794 0 12.8978 0 12.5L0 3.5C0 3.10218 0.158035 2.72064 0.43934 2.43934C0.720644 2.15804 1.10218 2 1.5 2H9.5C9.89782 2 10.2794 2.15804 10.5607 2.43934C10.842 2.72064 11 3.10218 11 3.5V5.5C11 5.63261 10.9473 5.75979 10.8536 5.85355C10.7598 5.94732 10.6326 6 10.5 6C10.3674 6 10.2402 5.94732 10.1464 5.85355C10.0527 5.75979 10 5.63261 10 5.5V3.5Z" fill="white"/>
<path fill-rule="evenodd" clip-rule="evenodd" d="M4.14592 8.35414C4.09935 8.3077 4.06241 8.25252 4.0372 8.19178C4.012 8.13103 3.99902 8.06591 3.99902 8.00014C3.99902 7.93438 4.012 7.86925 4.0372 7.80851C4.06241 7.74776 4.09935 7.69259 4.14592 7.64614L7.14592 4.64614C7.2398 4.55226 7.36714 4.49951 7.49992 4.49951C7.63269 4.49951 7.76003 4.55226 7.85392 4.64614C7.9478 4.74003 8.00055 4.86737 8.00055 5.00014C8.00055 5.13292 7.9478 5.26026 7.85392 5.35414L5.70692 7.50014H14.4999C14.6325 7.50014 14.7597 7.55282 14.8535 7.64659C14.9472 7.74036 14.9999 7.86754 14.9999 8.00014C14.9999 8.13275 14.9472 8.25993 14.8535 8.3537C14.7597 8.44747 14.6325 8.50014 14.4999 8.50014H5.70692L7.85392 10.6461C7.90041 10.6926 7.93728 10.7478 7.96244 10.8086C7.9876 10.8693 8.00055 10.9344 8.00055 11.0001C8.00055 11.0659 7.9876 11.131 7.96244 11.1917C7.93728 11.2525 7.90041 11.3077 7.85392 11.3541C7.80743 11.4006 7.75224 11.4375 7.6915 11.4627C7.63076 11.4878 7.56566 11.5008 7.49992 11.5008C7.43417 11.5008 7.36907 11.4878 7.30833 11.4627C7.24759 11.4375 7.19241 11.4006 7.14592 11.3541L4.14592 8.35414Z" fill="white"/>
</svg>
